<svg xmlns="http://www.w3.org/2000/svg" version="1.1" xmlns:xlink="http://www.w3.org/1999/xlink" xmlns:svgjs="http://svgjs.dev/svgjs" width="2000" height="515" viewBox="0 0 2000 515"><g transform="matrix(1,0,0,1,-1.2121211305840234,0.4405263718753645)"><svg viewBox="0 0 396 102" data-background-color="#ffffff" preserveAspectRatio="xMidYMid meet" height="515" width="2000" xmlns="http://www.w3.org/2000/svg" xmlns:xlink="http://www.w3.org/1999/xlink"><g id="tight-bounds" transform="matrix(1,0,0,1,0.24000001614433586,-0.08724988336172146)"><svg viewBox="0 0 395.52 102.17449976672347" height="102.17449976672347" width="395.52"><g><svg viewBox="0 0 559.6908573075573 144.58468186035668" height="102.17449976672347" width="395.52"><g><rect width="3.1409423201285622" height="70.09532333316855" x="403.74236209457735" y="37.244679263594065" fill="#096a2e" opacity="1" stroke-width="0" stroke="transparent" fill-opacity="1" class="rect-o-0" data-fill-palette-color="primary" rx="1%" id="o-0" data-palette-color="#096a2e"></rect></g><g transform="matrix(1,0,0,1,0,37.419045739547215)"><svg viewBox="0 0 395.52 69.74659038126225" height="69.74659038126225" width="395.52"><g id="textblocktransform"><svg viewBox="0 0 395.52 69.74659038126225" height="69.74659038126225" width="395.52" id="textblock"><g><svg viewBox="0 0 395.52 34.82930113428467" height="34.82930113428467" width="395.52"><g transform="matrix(1,0,0,1,0,0)"><svg width="395.52" viewBox="1.4500000476837158 -35.75 412.7699890136719 36.099998474121094" height="34.82930113428467" data-palette-color="#096a2e"><g class="undefined-text-0" data-fill-palette-color="primary" id="text-0"><path d="M27.2-31.7L25.1-28.05Q24.5-28.75 23.5-29.4 22.5-30.05 21.25-30.58 20-31.1 18.53-31.43 17.05-31.75 15.45-31.75L15.45-31.75Q11.35-31.75 9.4-30.2 7.45-28.65 7.45-25.95L7.45-25.95Q7.45-24.05 8.45-22.95 9.45-21.85 11.53-21.15 13.6-20.45 16.8-19.7L16.8-19.7Q20.5-18.9 23.2-17.75 25.9-16.6 27.35-14.68 28.8-12.75 28.8-9.55L28.8-9.55Q28.8-7 27.83-5.13 26.85-3.25 25.1-2.02 23.35-0.8 21-0.23 18.65 0.35 15.9 0.35L15.9 0.35Q13.2 0.35 10.63-0.23 8.05-0.8 5.75-1.9 3.45-3 1.45-4.65L1.45-4.65 3.6-8.45Q4.4-7.6 5.68-6.78 6.95-5.95 8.58-5.25 10.2-4.55 12.1-4.13 14-3.7 16-3.7L16-3.7Q19.8-3.7 21.9-5.08 24-6.45 24-9.1L24-9.1Q24-11.1 22.83-12.3 21.65-13.5 19.35-14.3 17.05-15.1 13.75-15.9L13.75-15.9Q10.15-16.8 7.7-17.88 5.25-18.95 4.03-20.7 2.8-22.45 2.8-25.25L2.8-25.25Q2.8-28.65 4.45-31 6.1-33.35 9-34.55 11.9-35.75 15.55-35.75L15.55-35.75Q17.95-35.75 20.03-35.25 22.1-34.75 23.9-33.85 25.7-32.95 27.2-31.7L27.2-31.7ZM49.35 0.25L49.35 0.25Q45.1 0.25 42.2-1.23 39.3-2.7 37.55-5.23 35.8-7.75 35-10.95 34.2-14.15 34.2-17.55L34.2-17.55 34.2-35.5 38.7-35.5 38.7-17.55Q38.7-14.95 39.22-12.48 39.75-10 40.95-8.05 42.15-6.1 44.2-4.95 46.25-3.8 49.3-3.8L49.3-3.8Q52.4-3.8 54.45-4.98 56.5-6.15 57.7-8.13 58.9-10.1 59.42-12.55 59.95-15 59.95-17.55L59.95-17.55 59.95-35.5 64.45-35.5 64.45-17.55Q64.45-13.95 63.62-10.73 62.8-7.5 61-5.05 59.2-2.6 56.32-1.18 53.45 0.25 49.35 0.25ZM95.4-31.7L93.3-28.05Q92.7-28.75 91.7-29.4 90.7-30.05 89.45-30.58 88.2-31.1 86.72-31.43 85.25-31.75 83.65-31.75L83.65-31.75Q79.55-31.75 77.6-30.2 75.65-28.65 75.65-25.95L75.65-25.95Q75.65-24.05 76.65-22.95 77.65-21.85 79.72-21.15 81.8-20.45 85-19.7L85-19.7Q88.7-18.9 91.4-17.75 94.1-16.6 95.55-14.68 97-12.75 97-9.55L97-9.55Q97-7 96.02-5.13 95.05-3.25 93.3-2.02 91.55-0.8 89.2-0.23 86.85 0.35 84.1 0.35L84.1 0.35Q81.4 0.35 78.82-0.23 76.25-0.8 73.95-1.9 71.65-3 69.65-4.65L69.65-4.65 71.8-8.45Q72.6-7.6 73.87-6.78 75.15-5.95 76.77-5.25 78.4-4.55 80.3-4.13 82.2-3.7 84.2-3.7L84.2-3.7Q88-3.7 90.1-5.08 92.2-6.45 92.2-9.1L92.2-9.1Q92.2-11.1 91.02-12.3 89.85-13.5 87.55-14.3 85.25-15.1 81.95-15.9L81.95-15.9Q78.35-16.8 75.9-17.88 73.45-18.95 72.22-20.7 71-22.45 71-25.25L71-25.25Q71-28.65 72.65-31 74.3-33.35 77.2-34.55 80.1-35.75 83.75-35.75L83.75-35.75Q86.15-35.75 88.22-35.25 90.3-34.75 92.1-33.85 93.9-32.95 95.4-31.7L95.4-31.7ZM128.49-35.5L128.49-31.5 116.24-31.5 116.24 0 111.74 0 111.74-31.5 99.49-31.5 99.49-35.5 128.49-35.5ZM129.84 0L144.39-35.5 148.19-35.5 162.69 0 157.89 0 153.69-10.4 138.79-10.4 134.64 0 129.84 0ZM139.69-13.9L152.69-13.9 146.29-30.3 139.69-13.9ZM171.94 0L167.44 0 167.44-35.5 171.94-35.5 171.94 0ZM206.34 0L184.94-27.2 184.94 0 180.44 0 180.44-35.5 184.24-35.5 205.94-7.75 205.94-35.45 210.44-35.45 210.44 0 206.34 0ZM215.18 0L229.73-35.5 233.53-35.5 248.03 0 243.23 0 239.03-10.4 224.13-10.4 219.98 0 215.18 0ZM225.03-13.9L238.03-13.9 231.63-30.3 225.03-13.9Z" fill="#096a2e" data-fill-palette-color="primary"></path><path d="M256.78 0L252.28 0 252.28-35.5 275.73-35.5 275.73-31.5 256.78-31.5 256.78-19.65 272.73-19.65 272.73-15.9 256.78-15.9 256.78 0ZM285.93 0L281.43 0 281.43-35.5 285.93-35.5 285.93 0ZM298.93-4L318.53-4 318.53 0 294.43 0 294.43-35.5 318.08-35.5 318.08-31.5 298.93-31.5 298.93-20 315.58-20 315.58-16.25 298.93-16.25 298.93-4ZM348.97 0L324.67 0 324.67-35.5 329.17-35.5 329.17-4 348.97-4 348.97 0ZM366.17 0L353.87 0 353.87-35.5 366.17-35.5Q371.87-35.5 375.7-33.13 379.52-30.75 381.42-26.73 383.32-22.7 383.32-17.8L383.32-17.8Q383.32-12.4 381.22-8.4 379.12-4.4 375.27-2.2 371.42 0 366.17 0L366.17 0ZM378.77-17.8L378.77-17.8Q378.77-21.8 377.3-24.9 375.82-28 373.02-29.75 370.22-31.5 366.17-31.5L366.17-31.5 358.37-31.5 358.37-4 366.17-4Q370.27-4 373.07-5.83 375.87-7.65 377.32-10.78 378.77-13.9 378.77-17.8ZM412.62-31.7L410.52-28.05Q409.92-28.75 408.92-29.4 407.92-30.05 406.67-30.58 405.42-31.1 403.94-31.43 402.47-31.75 400.87-31.75L400.87-31.75Q396.77-31.75 394.82-30.2 392.87-28.65 392.87-25.95L392.87-25.95Q392.87-24.05 393.87-22.95 394.87-21.85 396.94-21.15 399.02-20.45 402.22-19.7L402.22-19.7Q405.92-18.9 408.62-17.75 411.32-16.6 412.77-14.68 414.22-12.75 414.22-9.55L414.22-9.55Q414.22-7 413.24-5.13 412.27-3.25 410.52-2.02 408.77-0.8 406.42-0.23 404.07 0.35 401.32 0.35L401.32 0.35Q398.62 0.35 396.04-0.23 393.47-0.8 391.17-1.9 388.87-3 386.87-4.65L386.87-4.65 389.02-8.45Q389.82-7.6 391.09-6.78 392.37-5.95 393.99-5.25 395.62-4.55 397.52-4.13 399.42-3.7 401.42-3.7L401.42-3.7Q405.22-3.7 407.32-5.08 409.42-6.45 409.42-9.1L409.42-9.1Q409.42-11.1 408.24-12.3 407.07-13.5 404.77-14.3 402.47-15.1 399.17-15.9L399.17-15.9Q395.57-16.8 393.12-17.88 390.67-18.95 389.44-20.7 388.22-22.45 388.22-25.25L388.22-25.25Q388.22-28.65 389.87-31 391.52-33.35 394.42-34.55 397.32-35.75 400.97-35.75L400.97-35.75Q403.37-35.75 405.44-35.25 407.52-34.75 409.32-33.85 411.12-32.95 412.62-31.7L412.62-31.7Z" fill="#8abe53" data-fill-palette-color="secondary"></path></g></svg></g></svg></g><g transform="matrix(1,0,0,1,163.310208,43.051663228862054)"><svg viewBox="0 0 232.209792 26.694927152400183" height="26.694927152400183" width="232.209792"><g transform="matrix(1,0,0,1,0,0)"><svg width="232.209792" viewBox="2.4000000953674316 -36.5 321.82000732421875 37" height="26.694927152400183" data-palette-color="#8abe53"><path d="M2.4-18L2.4-18Q2.4-21.2 3.53-24.33 4.65-27.45 6.8-30.03 8.95-32.6 12.05-34.15 15.15-35.7 19.15-35.7L19.15-35.7Q23.9-35.7 27.2-33.52 30.5-31.35 32.1-27.95L32.1-27.95 31.15-27.65Q29.8-30.25 27.8-31.8 25.8-33.35 23.53-34.02 21.25-34.7 18.95-34.7L18.95-34.7Q15.25-34.7 12.35-33.25 9.45-31.8 7.45-29.35 5.45-26.9 4.42-23.93 3.4-20.95 3.4-17.85L3.4-17.85Q3.4-14.45 4.6-11.38 5.8-8.3 7.95-5.9 10.1-3.5 12.95-2.1 15.8-0.7 19.1-0.7L19.1-0.7Q21.45-0.7 23.9-1.5 26.35-2.3 28.5-3.95 30.65-5.6 32-8.2L32-8.2 32.95-7.95Q31.75-5.3 29.45-3.45 27.15-1.6 24.38-0.65 21.6 0.3 18.9 0.3L18.9 0.3Q15.3 0.3 12.28-1.28 9.25-2.85 7.03-5.48 4.8-8.1 3.6-11.38 2.4-14.65 2.4-18ZM36.8-7.45L36.8-7.45Q36.8-9.65 38.17-11.3 39.55-12.95 41.95-13.9 44.35-14.85 47.5-14.85L47.5-14.85Q49.7-14.85 52.02-14.48 54.35-14.1 56.2-13.4L56.2-13.4 56.2-16.35Q56.2-20.4 53.87-22.88 51.55-25.35 47.7-25.35L47.7-25.35Q45.85-25.35 43.67-24.53 41.5-23.7 39.3-22.15L39.3-22.15 38.7-22.95Q41.2-24.65 43.45-25.5 45.7-26.35 47.7-26.35L47.7-26.35Q52.05-26.35 54.62-23.65 57.2-20.95 57.2-16.35L57.2-16.35 57.2-2Q57.2-1.5 57.42-1.25 57.65-1 58-1L58-1 58 0Q57.7 0 57.55-0.03 57.4-0.05 57.3-0.1L57.3-0.1Q56.8-0.3 56.5-0.83 56.2-1.35 56.2-2L56.2-2 56.2-4.4Q54.4-2.1 51.5-0.8 48.6 0.5 45.2 0.5L45.2 0.5Q42.85 0.5 40.95-0.55 39.05-1.6 37.92-3.43 36.8-5.25 36.8-7.45ZM55.45-5.1L55.45-5.1Q55.85-5.65 56.02-6.18 56.2-6.7 56.2-7.15L56.2-7.15 56.2-12.3Q54.2-13.1 52.02-13.48 49.85-13.85 47.5-13.85L47.5-13.85Q43.15-13.85 40.47-12.1 37.8-10.35 37.8-7.45L37.8-7.45Q37.8-5.5 38.77-3.93 39.75-2.35 41.45-1.43 43.15-0.5 45.2-0.5L45.2-0.5Q48.55-0.5 51.32-1.75 54.1-3 55.45-5.1ZM76.35-25.95L76.35-24.95Q72.7-24.8 70-22.53 67.3-20.25 66.25-16.4L66.25-16.4 66.25 0 65.25 0 65.25-25.95 66.25-25.95 66.25-19.25Q67.6-22 69.87-23.78 72.15-25.55 74.7-25.85L74.7-25.85Q75.2-25.9 75.62-25.93 76.05-25.95 76.35-25.95L76.35-25.95ZM92.54 0.5L92.54 0.5Q89.49 0.5 86.72-1.23 83.94-2.95 82.39-5.4L82.39-5.4 82.39 0 81.39 0 81.39-36.5 82.39-36.5 82.39-19.9Q84.39-22.7 86.99-24.53 89.59-26.35 92.99-26.35L92.99-26.35Q95.84-26.35 98.07-25.18 100.29-24 101.87-22.03 103.44-20.05 104.24-17.68 105.04-15.3 105.04-12.9L105.04-12.9Q105.04-10.25 104.09-7.85 103.14-5.45 101.44-3.58 99.74-1.7 97.47-0.6 95.19 0.5 92.54 0.5ZM92.54-0.5L92.54-0.5Q95.04-0.5 97.14-1.55 99.24-2.6 100.79-4.4 102.34-6.2 103.19-8.4 104.04-10.6 104.04-12.9L104.04-12.9Q104.04-16.1 102.64-18.95 101.24-21.8 98.77-23.58 96.29-25.35 92.99-25.35L92.99-25.35Q90.54-25.35 88.49-24.28 86.44-23.2 84.92-21.5 83.39-19.8 82.39-17.8L82.39-17.8 82.39-8.35Q82.49-6.75 83.49-5.33 84.49-3.9 86.04-2.83 87.59-1.75 89.32-1.13 91.04-0.5 92.54-0.5ZM121.99 0.5L121.99 0.5Q119.44 0.5 117.19-0.55 114.94-1.6 113.24-3.48 111.54-5.35 110.59-7.78 109.64-10.2 109.64-12.9L109.64-12.9Q109.64-15.65 110.62-18.07 111.59-20.5 113.29-22.38 114.99-24.25 117.24-25.3 119.49-26.35 121.99-26.35L121.99-26.35Q124.49-26.35 126.74-25.3 128.99-24.25 130.69-22.38 132.39-20.5 133.37-18.07 134.34-15.65 134.34-12.9L134.34-12.9Q134.34-10.2 133.39-7.78 132.44-5.35 130.72-3.48 128.99-1.6 126.77-0.55 124.54 0.5 121.99 0.5ZM110.64-12.8L110.64-12.8Q110.64-9.45 112.17-6.65 113.69-3.85 116.27-2.18 118.84-0.5 121.94-0.5L121.94-0.5Q125.04-0.5 127.64-2.2 130.24-3.9 131.79-6.75 133.34-9.6 133.34-12.95L133.34-12.95Q133.34-16.3 131.79-19.13 130.24-21.95 127.67-23.65 125.09-25.35 121.99-25.35L121.99-25.35Q118.94-25.35 116.34-23.63 113.74-21.9 112.19-19.05 110.64-16.2 110.64-12.8ZM160.99-14.45L160.99 0 159.99 0 159.99-14.45Q159.99-20.1 158.41-22.73 156.84-25.35 153.34-25.35L153.34-25.35Q150.84-25.35 148.46-24.18 146.09-23 144.34-20.98 142.59-18.95 141.84-16.4L141.84-16.4 141.84 0 140.84 0 140.84-25.95 141.84-25.95 141.84-19.25Q142.94-21.35 144.74-22.95 146.54-24.55 148.76-25.45 150.99-26.35 153.29-26.35L153.29-26.35Q155.29-26.35 156.74-25.63 158.19-24.9 159.14-23.45 160.09-22 160.54-19.75 160.99-17.5 160.99-14.45L160.99-14.45ZM192.78 0.5L192.78 0.5Q190.23 0.5 187.96-0.58 185.68-1.65 183.93-3.53 182.18-5.4 181.21-7.85 180.23-10.3 180.23-13.1L180.23-13.1Q180.23-16.85 181.88-19.85 183.53-22.85 186.38-24.6 189.23-26.35 192.73-26.35L192.73-26.35Q195.98-26.35 198.58-24.83 201.18-23.3 202.48-20.55L202.48-20.55 201.48-20.2Q200.23-22.6 197.83-23.98 195.43-25.35 192.58-25.35L192.58-25.35Q189.43-25.35 186.86-23.73 184.28-22.1 182.76-19.33 181.23-16.55 181.23-13.1L181.23-13.1Q181.23-9.7 182.78-6.83 184.33-3.95 186.93-2.23 189.53-0.5 192.63-0.5L192.63-0.5Q194.68-0.5 196.63-1.28 198.58-2.05 200.01-3.3 201.43-4.55 201.83-5.95L201.83-5.95 202.83-5.65Q202.28-3.9 200.73-2.5 199.18-1.1 197.11-0.3 195.03 0.5 192.78 0.5ZM220.13-25.95L220.13-24.95Q216.48-24.8 213.78-22.53 211.08-20.25 210.03-16.4L210.03-16.4 210.03 0 209.03 0 209.03-25.95 210.03-25.95 210.03-19.25Q211.38-22 213.66-23.78 215.93-25.55 218.48-25.85L218.48-25.85Q218.98-25.9 219.41-25.93 219.83-25.95 220.13-25.95L220.13-25.95ZM234.48 0.5L234.48 0.5Q231.93 0.5 229.65-0.58 227.38-1.65 225.65-3.53 223.93-5.4 222.95-7.88 221.98-10.35 221.98-13.15L221.98-13.15Q221.98-16.8 223.63-19.8 225.28-22.8 228.05-24.58 230.83-26.35 234.23-26.35L234.23-26.35Q237.68-26.35 240.5-24.55 243.33-22.75 245.03-19.73 246.73-16.7 246.73-12.95L246.73-12.95Q246.73-12.8 246.73-12.68 246.73-12.55 246.73-12.4L246.73-12.4 222.98-12.4Q223.23-9.05 224.83-6.35 226.43-3.65 228.98-2.08 231.53-0.5 234.53-0.5L234.53-0.5Q237.53-0.5 240.13-2.02 242.73-3.55 243.83-5.95L243.83-5.95 244.78-5.7Q244.08-3.95 242.5-2.53 240.93-1.1 238.83-0.3 236.73 0.5 234.48 0.5ZM222.98-13.4L222.98-13.4 245.68-13.4Q245.48-16.9 243.93-19.58 242.38-22.25 239.88-23.8 237.38-25.35 234.28-25.35L234.28-25.35Q231.23-25.35 228.73-23.8 226.23-22.25 224.7-19.55 223.18-16.85 222.98-13.4ZM250.78-12.9L250.78-12.9Q250.78-16.5 252.35-19.55 253.93-22.6 256.65-24.48 259.38-26.35 262.83-26.35L262.83-26.35Q266.38-26.35 269.13-24.43 271.88-22.5 273.43-19.9L273.43-19.9 273.43-36.5 274.43-36.5 274.43-2Q274.43-1.55 274.65-1.28 274.88-1 275.23-1L275.23-1 275.23 0Q274.78 0 274.58-0.1L274.58-0.1Q274.03-0.35 273.73-0.88 273.43-1.4 273.43-2L273.43-2 273.43-5.4Q271.78-2.8 269-1.15 266.23 0.5 263.28 0.5L263.28 0.5Q260.58 0.5 258.28-0.65 255.98-1.8 254.3-3.73 252.63-5.65 251.7-8.03 250.78-10.4 250.78-12.9ZM273.43-8.45L273.43-8.45 273.43-17.8Q272.68-19.9 270.98-21.6 269.28-23.3 267.1-24.33 264.93-25.35 262.83-25.35L262.83-25.35Q260.28-25.35 258.25-24.3 256.23-23.25 254.78-21.45 253.33-19.65 252.55-17.45 251.78-15.25 251.78-12.9L251.78-12.9Q251.78-10.45 252.65-8.22 253.53-6 255.13-4.25 256.73-2.5 258.8-1.5 260.88-0.5 263.28-0.5L263.28-0.5Q264.78-0.5 266.5-1.13 268.23-1.75 269.78-2.88 271.33-4 272.33-5.43 273.33-6.85 273.43-8.45ZM283.87 0L282.87 0 282.87-25.95 283.87-25.95 283.87 0ZM283.87-32.65L282.87-32.65 282.87-36.5 283.87-36.5 283.87-32.65ZM301.82-2L302.37-1.2Q302.37-1.2 301.75-0.83 301.12-0.45 300.07-0.1 299.02 0.25 297.62 0.25L297.62 0.25Q296.42 0.25 295.4-0.25 294.37-0.75 293.75-1.65 293.12-2.55 293.12-3.75L293.12-3.75 293.12-24.95 289.37-24.95 289.37-25.95 293.12-25.95 293.12-35 294.12-35 294.12-25.95 300.37-25.95 300.37-24.95 294.12-24.95 294.12-3.75Q294.22-2.3 295.27-1.53 296.32-0.75 297.62-0.75L297.62-0.75Q299.37-0.75 300.57-1.35 301.77-1.95 301.82-2L301.82-2ZM314.57 0.5L314.57 0.5Q311.62 0.5 309.12-0.53 306.62-1.55 304.67-3.7L304.67-3.7 305.42-4.35Q307.42-2.4 309.62-1.45 311.82-0.5 314.57-0.5L314.57-0.5Q318.42-0.5 320.82-2.18 323.22-3.85 323.22-6.8L323.22-6.8Q323.22-8.7 322.17-9.78 321.12-10.85 319.09-11.53 317.07-12.2 314.17-12.85L314.17-12.85Q311.52-13.5 309.74-14.13 307.97-14.75 307.09-15.85 306.22-16.95 306.22-19L306.22-19Q306.22-21.6 307.49-23.2 308.77-24.8 310.84-25.58 312.92-26.35 315.37-26.35L315.37-26.35Q318.52-26.35 320.74-25.28 322.97-24.2 323.82-22.6L323.82-22.6 322.92-22.2Q321.97-23.75 319.82-24.55 317.67-25.35 315.17-25.35L315.17-25.35Q313.02-25.35 311.22-24.7 309.42-24.05 308.32-22.7 307.22-21.35 307.22-19.15L307.22-19.15Q307.22-17.45 307.97-16.5 308.72-15.55 310.27-15 311.82-14.45 314.22-13.85L314.22-13.85Q317.32-13.15 319.57-12.4 321.82-11.65 323.02-10.43 324.22-9.2 324.22-6.95L324.22-6.95Q324.22-3.55 321.57-1.53 318.92 0.5 314.57 0.5Z" opacity="1" transform="matrix(1,0,0,1,0,0)" fill="#8abe53" class="undefined-text-1" data-fill-palette-color="secondary" id="text-1"></path></svg></g></svg></g></svg></g></svg></g><g transform="matrix(1,0,0,1,415.10566650928325,0)"><svg viewBox="0 0 144.58519079827397 144.58468186035668" height="144.58468186035668" width="144.58519079827397"><g><svg xmlns="http://www.w3.org/2000/svg" xmlns:xlink="http://www.w3.org/1999/xlink" version="1.1" x="0" y="0" viewBox="7.734947204589844 7.735245704650879 84.53054809570312 84.5302505493164" enable-background="new 0 0 100 100" xml:space="preserve" height="144.58468186035668" width="144.58519079827397" class="icon-icon-0" data-fill-palette-color="accent" id="icon-0"><g fill="#8abe53" data-fill-palette-color="accent"><g fill="#8abe53" data-fill-palette-color="accent"><g fill="#8abe53" data-fill-palette-color="accent"><path d="M28.368 14.767C42.162 16.327 48.04 25.762 49.69 30.695c1.07 3.198 1.472 5.094 1.472 9.275 0 0.817 0.044 2.076-1.054 2.216-0.77 0.099-1.209-0.509-1.273-1.182-0.289-3.026-1.159-6.569-4.008-9.85-2.253-2.594-7.472-7.802-16.652-7.021-2.669 0.228-5.052-1.868-5.129-4.564C22.964 16.703 25.531 14.446 28.368 14.767z" fill="#8abe53" data-fill-palette-color="accent"></path><path d="M71.633 85.232c-13.794-1.561-19.671-10.995-21.322-15.929-1.07-3.198-1.472-5.094-1.472-9.275 0-0.817-0.044-2.076 1.054-2.216 0.77-0.099 1.209 0.509 1.273 1.182 0.289 3.026 1.159 6.569 4.008 9.85 2.253 2.594 7.472 7.802 16.652 7.021 2.669-0.228 5.052 1.868 5.129 4.564C77.037 83.296 74.47 85.553 71.633 85.232z" fill="#8abe53" data-fill-palette-color="accent"></path></g><g fill="#8abe53" data-fill-palette-color="accent"><path d="M14.768 71.633c1.56-13.794 10.995-19.672 15.928-21.322 3.198-1.07 5.094-1.472 9.276-1.472 0.817 0 2.076-0.045 2.216 1.054 0.098 0.77-0.509 1.209-1.182 1.273-3.026 0.288-6.569 1.159-9.849 4.008-2.594 2.254-7.802 7.473-7.021 16.652 0.228 2.669-1.868 5.052-4.564 5.129C16.704 77.036 14.447 74.47 14.768 71.633z" fill="#8abe53" data-fill-palette-color="accent"></path><path d="M85.233 28.367c-1.56 13.794-10.995 19.672-15.928 21.322-3.198 1.07-5.094 1.472-9.276 1.472-0.817 0-2.076 0.045-2.216-1.054-0.098-0.77 0.509-1.209 1.182-1.273 3.026-0.288 6.569-1.159 9.849-4.008 2.594-2.254 7.802-7.473 7.021-16.652-0.228-2.669 1.868-5.052 4.564-5.129C83.297 22.964 85.554 25.53 85.233 28.367z" fill="#8abe53" data-fill-palette-color="accent"></path></g></g><g fill="#8abe53" data-fill-palette-color="accent"><g fill="#8abe53" data-fill-palette-color="accent"><path d="M13.65 30.304c12.726-5.546 22.533-0.314 26.43 3.133 2.526 2.234 3.821 3.676 5.912 7.297 0.409 0.708 1.077 1.775 0.195 2.446-0.617 0.47-1.302 0.164-1.693-0.387-1.763-2.477-4.289-5.109-8.396-6.525-3.249-1.12-10.373-3.021-17.931 2.246-2.198 1.531-5.309 0.907-6.724-1.389C9.938 34.682 11.033 31.444 13.65 30.304z" fill="#8abe53" data-fill-palette-color="accent"></path><path d="M86.351 69.695c-12.726 5.546-22.533 0.314-26.43-3.133-2.526-2.234-3.821-3.676-5.912-7.297-0.409-0.708-1.077-1.775-0.196-2.446 0.618-0.47 1.302-0.164 1.694 0.387 1.763 2.477 4.289 5.109 8.396 6.525 3.249 1.12 10.373 3.021 17.931-2.245 2.198-1.532 5.309-0.908 6.724 1.388C90.063 65.317 88.968 68.555 86.351 69.695z" fill="#8abe53" data-fill-palette-color="accent"></path></g><g fill="#8abe53" data-fill-palette-color="accent"><path d="M30.304 86.351c-5.546-12.726-0.314-22.533 3.133-26.43 2.235-2.525 3.676-3.821 7.298-5.912 0.708-0.409 1.775-1.076 2.445-0.195 0.47 0.617 0.164 1.302-0.387 1.693-2.477 1.764-5.109 4.289-6.525 8.396-1.12 3.248-3.021 10.372 2.246 17.931 1.531 2.198 0.908 5.31-1.389 6.725C34.683 90.062 31.445 88.968 30.304 86.351z" fill="#8abe53" data-fill-palette-color="accent"></path><path d="M69.696 13.649c5.546 12.726 0.314 22.533-3.133 26.43-2.234 2.526-3.675 3.821-7.297 5.913-0.708 0.408-1.775 1.076-2.446 0.195-0.47-0.618-0.163-1.303 0.388-1.694 2.477-1.763 5.109-4.288 6.525-8.396 1.12-3.249 3.021-10.372-2.246-17.932-1.532-2.198-0.908-5.309 1.388-6.724C65.318 9.938 68.556 11.032 69.696 13.649z" fill="#8abe53" data-fill-palette-color="accent"></path></g></g><g fill="#8abe53" data-fill-palette-color="accent"><g fill="#8abe53" data-fill-palette-color="accent"><path d="M8.671 51.118c8.248-11.166 19.357-11.539 24.456-10.502 3.305 0.672 5.147 1.272 8.769 3.363 0.708 0.408 1.82 0.999 1.392 2.021-0.299 0.716-1.045 0.793-1.66 0.512-2.765-1.263-6.269-2.28-10.533-1.453-3.374 0.654-10.494 2.57-14.406 10.911-1.138 2.425-4.144 3.44-6.518 2.159C7.646 56.766 6.976 53.414 8.671 51.118z" fill="#8abe53" data-fill-palette-color="accent"></path><path d="M91.329 48.882C83.081 60.047 71.971 60.42 66.874 59.383c-3.305-0.672-5.147-1.272-8.769-3.363-0.708-0.408-1.82-0.999-1.393-2.021 0.3-0.716 1.046-0.793 1.66-0.512 2.766 1.264 6.269 2.28 10.534 1.453 3.373-0.654 10.493-2.569 14.406-10.91 1.138-2.426 4.144-3.441 6.517-2.16C92.354 43.233 93.025 46.585 91.329 48.882z" fill="#8abe53" data-fill-palette-color="accent"></path></g><g fill="#8abe53" data-fill-palette-color="accent"><path d="M51.119 91.329C39.953 83.081 39.58 71.972 40.617 66.874c0.673-3.305 1.272-5.147 3.364-8.77 0.409-0.708 1-1.819 2.02-1.392 0.716 0.3 0.793 1.045 0.512 1.66-1.263 2.765-2.28 6.269-1.453 10.533 0.654 3.374 2.57 10.493 10.911 14.406 2.425 1.138 3.44 4.144 2.159 6.518C56.766 92.354 53.415 93.025 51.119 91.329z" fill="#8abe53" data-fill-palette-color="accent"></path><path d="M48.882 8.672c11.166 8.247 11.538 19.356 10.501 24.455-0.672 3.305-1.271 5.147-3.362 8.77-0.409 0.707-1 1.819-2.021 1.392-0.716-0.3-0.792-1.046-0.511-1.661 1.263-2.765 2.28-6.268 1.453-10.533-0.655-3.373-2.57-10.492-10.911-14.406-2.426-1.137-3.44-4.144-2.159-6.517C43.234 7.646 46.585 6.976 48.882 8.672z" fill="#8abe53" data-fill-palette-color="accent"></path></g></g></g></svg></g></svg></g></svg></g><defs></defs></svg><rect width="395.52" height="102.17449976672347" fill="none" stroke="none" visibility="hidden"></rect></g></svg></g></svg>